<mxfile host="app.diagrams.net" modified="2021-10-11T13:33:53.967Z" agent="5.0 (Macintosh; Intel Mac OS X 10_15_7) AppleWebKit/537.36 (KHTML, like Gecko) Chrome/94.0.4606.61 Safari/537.36" etag="TPDS7B-Ym3X0fwmQVFs5" version="14.4.8" type="github">
  <diagram id="C5RBs43oDa-KdzZeNtuy" name="Page-1">
    <mxGraphModel dx="1186" dy="764" grid="1" gridSize="10" guides="1" tooltips="1" connect="1" arrows="1" fold="1" page="1" pageScale="1" pageWidth="827" pageHeight="1169" math="0" shadow="0">
      <root>
        <mxCell id="WIyWlLk6GJQsqaUBKTNV-0" />
        <mxCell id="WIyWlLk6GJQsqaUBKTNV-1" parent="WIyWlLk6GJQsqaUBKTNV-0" />
        <mxCell id="TxoLkDHuSiiLzDiFCCxA-1" value="AFIS&lt;br&gt;API" style="rounded=0;whiteSpace=wrap;html=1;" vertex="1" parent="WIyWlLk6GJQsqaUBKTNV-1">
          <mxGeometry x="620" y="110" width="120" height="60" as="geometry" />
        </mxCell>
        <mxCell id="TxoLkDHuSiiLzDiFCCxA-3" value="" style="endArrow=classic;html=1;entryX=0;entryY=0.5;entryDx=0;entryDy=0;exitX=1;exitY=0.5;exitDx=0;exitDy=0;" edge="1" parent="WIyWlLk6GJQsqaUBKTNV-1" source="TxoLkDHuSiiLzDiFCCxA-12">
          <mxGeometry width="50" height="50" relative="1" as="geometry">
            <mxPoint x="230" y="140" as="sourcePoint" />
            <mxPoint x="310" y="140" as="targetPoint" />
          </mxGeometry>
        </mxCell>
        <mxCell id="TxoLkDHuSiiLzDiFCCxA-4" value="" style="endArrow=classic;html=1;exitX=1;exitY=0.5;exitDx=0;exitDy=0;entryX=0;entryY=0.5;entryDx=0;entryDy=0;" edge="1" parent="WIyWlLk6GJQsqaUBKTNV-1" target="TxoLkDHuSiiLzDiFCCxA-1">
          <mxGeometry width="50" height="50" relative="1" as="geometry">
            <mxPoint x="430" y="139.5" as="sourcePoint" />
            <mxPoint x="590" y="139.5" as="targetPoint" />
          </mxGeometry>
        </mxCell>
        <mxCell id="TxoLkDHuSiiLzDiFCCxA-9" value="Request with required header" style="edgeLabel;html=1;align=center;verticalAlign=middle;resizable=0;points=[];" vertex="1" connectable="0" parent="TxoLkDHuSiiLzDiFCCxA-4">
          <mxGeometry x="-0.8737" y="1" relative="1" as="geometry">
            <mxPoint x="78" y="-8.53" as="offset" />
          </mxGeometry>
        </mxCell>
        <mxCell id="TxoLkDHuSiiLzDiFCCxA-5" value="MuleSoft&lt;br&gt;Gateway" style="shape=hexagon;perimeter=hexagonPerimeter2;whiteSpace=wrap;html=1;fixedSize=1;" vertex="1" parent="WIyWlLk6GJQsqaUBKTNV-1">
          <mxGeometry x="310" y="100" width="120" height="80" as="geometry" />
        </mxCell>
        <mxCell id="TxoLkDHuSiiLzDiFCCxA-7" style="edgeStyle=orthogonalEdgeStyle;rounded=0;orthogonalLoop=1;jettySize=auto;html=1;entryX=0;entryY=0.5;entryDx=0;entryDy=0;exitX=0.5;exitY=1;exitDx=0;exitDy=0;" edge="1" parent="WIyWlLk6GJQsqaUBKTNV-1" source="TxoLkDHuSiiLzDiFCCxA-12" target="TxoLkDHuSiiLzDiFCCxA-6">
          <mxGeometry relative="1" as="geometry">
            <mxPoint x="90" y="170" as="sourcePoint" />
          </mxGeometry>
        </mxCell>
        <mxCell id="TxoLkDHuSiiLzDiFCCxA-6" value="Config&lt;br&gt;File/storage&lt;br&gt;for&amp;nbsp;&lt;br&gt;Endpoint" style="whiteSpace=wrap;html=1;aspect=fixed;" vertex="1" parent="WIyWlLk6GJQsqaUBKTNV-1">
          <mxGeometry x="170" y="250" width="80" height="80" as="geometry" />
        </mxCell>
        <mxCell id="TxoLkDHuSiiLzDiFCCxA-14" value="" style="group" vertex="1" connectable="0" parent="WIyWlLk6GJQsqaUBKTNV-1">
          <mxGeometry x="30" y="80" width="150" height="90" as="geometry" />
        </mxCell>
        <mxCell id="TxoLkDHuSiiLzDiFCCxA-0" value="FD API" style="rounded=0;whiteSpace=wrap;html=1;" vertex="1" parent="TxoLkDHuSiiLzDiFCCxA-14">
          <mxGeometry width="120" height="60" as="geometry" />
        </mxCell>
        <mxCell id="TxoLkDHuSiiLzDiFCCxA-10" value="FD API" style="rounded=0;whiteSpace=wrap;html=1;" vertex="1" parent="TxoLkDHuSiiLzDiFCCxA-14">
          <mxGeometry x="10" y="10" width="120" height="60" as="geometry" />
        </mxCell>
        <mxCell id="TxoLkDHuSiiLzDiFCCxA-11" value="FD API" style="rounded=0;whiteSpace=wrap;html=1;" vertex="1" parent="TxoLkDHuSiiLzDiFCCxA-14">
          <mxGeometry x="20" y="20" width="120" height="60" as="geometry" />
        </mxCell>
        <mxCell id="TxoLkDHuSiiLzDiFCCxA-12" value="FD APIs" style="rounded=0;whiteSpace=wrap;html=1;" vertex="1" parent="TxoLkDHuSiiLzDiFCCxA-14">
          <mxGeometry x="30" y="30" width="120" height="60" as="geometry" />
        </mxCell>
      </root>
    </mxGraphModel>
  </diagram>
</mxfile>
